<?xml version="1.0" standalone="no"?>
<svg xmlns="http://www.w3.org/2000/svg" viewBox="0 0 76 72" width="76" height="72"><g fill="#4ad0ff" color="#4ad0ff" transform="translate(25.525 0) scale(0.8333334) "><svg width="29.0" height="48.0" x="0.0" y="0.0" viewBox="0 0 29 48"><path fill="currentColor" fill-rule="evenodd" d="M24 28.8l4.8 4.8L14.4 48 0 33.6l4.8-4.8 9.6 9.6 9.6-9.6zm-9.6-14.4L24 24l-9.6 9.6L4.8 24l9.6-9.6zm0-14.4l14.4 14.4-4.8 4.8-9.6-9.6-9.6 9.6L0 14.4 14.4 0z"></path></svg></g><path fill="#0019ff" fill-rule="nonzero" d="M12.89 10.32L12.89 10.32L12.91 12.17Q12.82 13.92 12.48 15.12Q12.14 16.32 11.16 17.30L11.16 17.30Q9.53 18.94 6.41 18.94L6.41 18.94Q2.74 18.94 1.37 17.96Q0 16.99 0 14.45L0 14.45L0 1.85L6.65 1.85Q9.53 1.85 11.16 3.48L11.16 3.48Q12.48 4.80 12.72 6.70L12.72 6.70Q12.89 8.04 12.89 10.32ZM8.83 14.90Q9.29 14.35 9.42 13.38Q9.55 12.41 9.55 10.34Q9.55 8.28 9.42 7.36Q9.29 6.43 8.83 5.88L8.83 5.88Q7.97 4.82 6.34 4.82L6.34 4.82L3.34 4.82L3.34 14.28Q3.34 15.24 3.98 15.60Q4.63 15.96 6.30 15.96Q7.97 15.96 8.83 14.90L8.83 14.90ZM17.16 0Q18.29 0 18.62 0.35Q18.96 0.70 18.96 1.81Q18.96 2.93 18.61 3.28Q18.26 3.62 17.15 3.62Q16.03 3.62 15.68 3.26Q15.34 2.90 15.34 1.80Q15.34 0.70 15.68 0.35Q16.03 0 17.16 0ZM18.70 5.74L18.70 18.94L15.58 18.94L15.58 5.74L18.70 5.74ZM25.61 5.33L28.90 5.33L32.02 5.14L32.02 18.31Q32.02 20.59 30.73 21.80Q29.45 23.02 26.93 23.02L26.93 23.02Q24.98 23.02 23.52 22.25L23.52 22.25Q22.75 21.86 22.30 21.10Q21.84 20.33 21.84 19.27L21.84 19.27L24.74 19.13Q24.74 19.80 25.22 20.09Q25.70 20.38 26.87 20.38Q28.03 20.38 28.45 19.80Q28.87 19.22 28.87 18.14L28.87 18.14L28.99 16.08L25.63 17.88Q22.87 17.88 21.91 16.01L21.91 16.01Q21.05 14.35 21.05 11.95L21.05 11.95Q21.05 9.10 21.48 7.92L21.48 7.92Q21.94 6.62 22.78 6.05L22.78 6.05Q23.86 5.33 25.61 5.33L25.61 5.33ZM26.52 14.59L28.90 13.37L28.90 8.14L26.52 8.14Q25.18 8.14 24.67 9.05Q24.17 9.96 24.17 11.59Q24.17 13.22 24.68 13.91Q25.20 14.59 26.52 14.59L26.52 14.59ZM37.08 0Q38.21 0 38.54 0.35Q38.88 0.70 38.88 1.81Q38.88 2.93 38.53 3.28Q38.18 3.62 37.07 3.62Q35.95 3.62 35.60 3.26Q35.26 2.90 35.26 1.80Q35.26 0.70 35.60 0.35Q35.95 0 37.08 0ZM38.62 5.74L38.62 18.94L35.50 18.94L35.50 5.74L38.62 5.74ZM47.95 16.30L47.95 18.94L46.01 18.94Q44.23 18.94 43.31 17.88Q42.38 16.82 42.38 15.36L42.38 15.36L42.38 8.16L41.06 8.16L41.06 5.78L42.38 5.78L42.38 3.10L45.50 3.10L45.50 5.78L47.71 5.78L47.71 8.16L45.50 8.16L45.50 15.17Q45.50 16.30 46.58 16.30L46.58 16.30L47.95 16.30ZM58.27 3.29L63.74 18.94L60.26 18.94L59.30 15.98L53.57 15.98L52.63 18.94L49.15 18.94L54.62 3.29Q54.98 2.47 55.43 2.16Q55.87 1.85 56.52 1.85Q57.17 1.85 57.56 2.14Q57.96 2.42 58.27 3.29L58.27 3.29ZM54.41 13.18L58.54 13.18L56.52 6.41L54.41 13.18ZM68.86 0.89L68.86 18.94L65.74 18.96L65.74 0.89L68.86 0.89ZM75.22 0.89L75.22 18.94L72.10 18.96L72.10 0.89L75.22 0.89Z" transform="translate(0, 48)"></path></svg>